<svg width="20" height="20" viewBox="0 0 20 20" fill="none" xmlns="http://www.w3.org/2000/svg">
<rect width="20" height="20" rx="10" fill="white"/>
<path d="M9.96764 8.33099C10.3776 8.33099 10.7176 8.67099 10.7176 9.08099L10.7176 14.331C10.7176 14.55 11.1527 14.9871 10.9998 15.125C10.8665 15.2452 10.1586 15.081 9.96764 15.081C9.55764 15.081 9.21764 14.741 9.21764 14.331L9.21764 9.08099C9.21764 8.67099 9.55764 8.33099 9.96764 8.33099Z" fill="#E14337"/>
<path d="M9.96765 4.83102C10.2377 4.83102 10.4877 4.931 10.6777 5.121C10.7677 5.221 10.8376 5.33102 10.8976 5.45102C10.9476 5.57102 10.9677 5.70102 10.9677 5.83102C10.9677 6.09102 10.8577 6.35104 10.6777 6.54104C10.3077 6.91104 9.62763 6.91104 9.25763 6.54104C9.07763 6.35104 8.96765 6.09102 8.96765 5.83102C8.96765 5.70102 8.99767 5.57102 9.04767 5.45102C9.09767 5.33102 9.16763 5.221 9.25763 5.121C9.44763 4.931 9.69765 4.83102 9.96765 4.83102Z" fill="#E14337"/>
</svg>
