<svg width="22" height="19" viewBox="0 0 22 19" fill="none" xmlns="http://www.w3.org/2000/svg">
<g id="exclamation-triangle-solid 1" clip-path="url(#clip0_6745_114)">
<path id="Vector" d="M20.9844 16.2937C21.661 17.4663 20.8118 18.9321 19.4606 18.9321H1.87218C0.518394 18.9321 -0.326857 17.464 0.348332 16.2937L9.14265 1.04575C9.81949 -0.127418 11.5147 -0.125292 12.1903 1.04575L20.9844 16.2937ZM10.6665 13.1412C9.73537 13.1412 8.98054 13.896 8.98054 14.8272C8.98054 15.7583 9.73537 16.5131 10.6665 16.5131C11.5976 16.5131 12.3525 15.7583 12.3525 14.8272C12.3525 13.896 11.5976 13.1412 10.6665 13.1412ZM9.06583 7.08107L9.33771 12.0656C9.35042 12.2989 9.54328 12.4815 9.77686 12.4815H11.5561C11.7897 12.4815 11.9826 12.2989 11.9953 12.0656L12.2672 7.08107C12.2809 6.82913 12.0803 6.61729 11.828 6.61729H9.50495C9.25264 6.61729 9.05208 6.82913 9.06583 7.08107Z" fill="white"/>
</g>
<defs>
<clipPath id="clip0_6745_114">
<rect width="21.1111" height="18.7654" fill="white" transform="translate(0.111206 0.166679)"/>
</clipPath>
</defs>
</svg>
