<svg width="24" height="24" viewBox="0 0 24 24" fill="none" xmlns="http://www.w3.org/2000/svg">
<path d="M16.7735 8.28772L8.28826 16.773C7.99834 17.0629 7.51751 17.0629 7.2276 16.773C6.93768 16.4831 6.93768 16.0023 7.2276 15.7123L15.7129 7.22706C16.0028 6.93715 16.4836 6.93715 16.7735 7.22706C17.0635 7.51698 17.0635 7.99781 16.7735 8.28772Z" fill="black"/>
<path d="M16.773 16.7729C16.4831 17.0628 16.0023 17.0628 15.7124 16.7729L7.22711 8.28765C6.93719 7.99774 6.93719 7.51691 7.22711 7.22699C7.51702 6.93708 7.99785 6.93708 8.28777 7.22699L16.773 15.7123C17.063 16.0022 17.063 16.483 16.773 16.7729Z" fill="black"/>
</svg>
