<svg width="24" height="24" viewBox="0 0 24 24" fill="none" xmlns="http://www.w3.org/2000/svg">
<rect width="24" height="24" rx="12" fill="white" fill-opacity="0.6"/>
<path d="M6.65578 6.49765C6.64873 6.49893 6.64177 6.50067 6.63495 6.50285C6.60447 6.50838 6.57613 6.5223 6.55312 6.54304C6.53011 6.56378 6.51333 6.59053 6.50468 6.62028C6.49603 6.65002 6.49584 6.68159 6.50413 6.71144C6.51242 6.74129 6.52887 6.76823 6.55163 6.78925L11.7641 12.0017L6.55163 17.2142C6.5359 17.2299 6.52342 17.2486 6.51491 17.2692C6.5064 17.2897 6.50202 17.3117 6.50202 17.334C6.50201 17.3562 6.5064 17.3782 6.51491 17.3988C6.52342 17.4193 6.5359 17.438 6.55162 17.4538C6.56735 17.4695 6.58603 17.482 6.60658 17.4905C6.62713 17.499 6.64915 17.5034 6.6714 17.5034C6.69364 17.5034 6.71567 17.499 6.73622 17.4905C6.75677 17.4819 6.77544 17.4695 6.79117 17.4537L12.0036 12.2413L17.2161 17.4537C17.2319 17.4695 17.2505 17.4819 17.2711 17.4905C17.2916 17.499 17.3137 17.5034 17.3359 17.5034C17.3581 17.5034 17.3802 17.499 17.4007 17.4905C17.4213 17.482 17.4399 17.4695 17.4557 17.4538C17.4714 17.438 17.4839 17.4193 17.4924 17.3988C17.5009 17.3782 17.5053 17.3562 17.5053 17.334C17.5053 17.3117 17.5009 17.2897 17.4924 17.2692C17.4839 17.2486 17.4714 17.2299 17.4557 17.2142L12.2432 12.0017L17.4557 6.78925C17.4818 6.76487 17.4995 6.7327 17.506 6.69751C17.5125 6.66232 17.5075 6.62598 17.4917 6.59386C17.4759 6.56174 17.4502 6.53555 17.4184 6.51916C17.3866 6.50277 17.3504 6.49705 17.3151 6.50285C17.2777 6.50689 17.2429 6.5234 17.2161 6.54972L12.0036 11.7622L6.79117 6.54972C6.77398 6.5314 6.75288 6.5172 6.72943 6.50818C6.70599 6.49916 6.68081 6.49556 6.65578 6.49765Z" fill="#1C2430"/>
<path fill-rule="evenodd" clip-rule="evenodd" d="M6.61232 6.17004L6.62836 6.16871C6.70299 6.16249 6.77806 6.17323 6.84795 6.20011C6.91577 6.22619 6.97701 6.26682 7.02738 6.3191L12.0036 11.2954L16.9826 6.31635L16.9846 6.31441C17.0622 6.23808 17.1627 6.18941 17.2705 6.17575C17.3729 6.16084 17.4775 6.17828 17.5696 6.22575C17.6645 6.27461 17.7411 6.3527 17.7881 6.44846C17.8351 6.54422 17.85 6.65257 17.8307 6.75749C17.8118 6.85996 17.7612 6.95383 17.6861 7.02589L12.7101 12.0018L17.6891 16.9808C17.6891 16.9808 17.6891 16.9808 17.6891 16.9808C17.7355 17.0272 17.7723 17.0823 17.7974 17.1429C17.8225 17.2035 17.8355 17.2685 17.8355 17.3341C17.8355 17.3997 17.8225 17.4647 17.7974 17.5253C17.7723 17.5859 17.7355 17.6409 17.6891 17.6873C17.6427 17.7337 17.5877 17.7705 17.5271 17.7956C17.4664 17.8207 17.4015 17.8337 17.3359 17.8337C17.2703 17.8337 17.2053 17.8207 17.1447 17.7956C17.0841 17.7705 17.029 17.7337 16.9826 17.6873C16.9826 17.6873 16.9826 17.6873 16.9826 17.6873L12.0036 12.7083L7.02465 17.6873C6.97826 17.7337 6.92319 17.7705 6.86258 17.7956C6.80197 17.8207 6.737 17.8337 6.6714 17.8337C6.60579 17.8337 6.54082 17.8207 6.48021 17.7956C6.4196 17.7705 6.36453 17.7337 6.31813 17.6873C6.27174 17.6409 6.23494 17.5859 6.20984 17.5253C6.18473 17.4646 6.17181 17.3997 6.17181 17.3341C6.17182 17.2685 6.18474 17.2035 6.20985 17.1429C6.23496 17.0823 6.27176 17.0272 6.31814 16.9808C6.31814 16.9808 6.31815 16.9808 6.31814 16.9808L11.2971 12.0018L6.32155 7.02625C6.25683 6.96444 6.20997 6.88627 6.18598 6.79995C6.16126 6.71096 6.16182 6.61684 6.18762 6.52815C6.21342 6.43947 6.26343 6.35973 6.33203 6.2979C6.39531 6.24085 6.47211 6.20112 6.55497 6.18236C6.56866 6.17863 6.58251 6.17548 6.59648 6.17293L6.61232 6.17004ZM6.63494 6.50296C6.60445 6.50849 6.57612 6.52241 6.55311 6.54315C6.5301 6.56389 6.51332 6.59064 6.50467 6.62039C6.49602 6.65013 6.49582 6.6817 6.50412 6.71155C6.51241 6.7414 6.52886 6.76835 6.55162 6.78936L11.7641 12.0018L6.55162 17.2143C6.53589 17.23 6.52341 17.2487 6.5149 17.2693C6.50639 17.2898 6.502 17.3118 6.502 17.3341C6.502 17.3563 6.50638 17.3784 6.5149 17.3989C6.52341 17.4195 6.53588 17.4381 6.55161 17.4539C6.56734 17.4696 6.58601 17.4821 6.60656 17.4906C6.62712 17.4991 6.64914 17.5035 6.67139 17.5035C6.69363 17.5035 6.71566 17.4991 6.73621 17.4906C6.75676 17.4821 6.77543 17.4696 6.79115 17.4539L12.0036 12.2414L17.2161 17.4539C17.2318 17.4696 17.2505 17.4821 17.2711 17.4906C17.2916 17.4991 17.3136 17.5035 17.3359 17.5035C17.3581 17.5035 17.3802 17.4991 17.4007 17.4906C17.4213 17.4821 17.4399 17.4696 17.4557 17.4539C17.4714 17.4381 17.4839 17.4195 17.4924 17.3989C17.5009 17.3784 17.5053 17.3563 17.5053 17.3341C17.5053 17.3118 17.5009 17.2898 17.4924 17.2693C17.4839 17.2487 17.4714 17.23 17.4556 17.2143L12.2432 12.0018L17.4556 6.78936C17.4818 6.76498 17.4995 6.73281 17.506 6.69762C17.5125 6.66243 17.5074 6.62609 17.4917 6.59397C17.4759 6.56185 17.4502 6.53566 17.4184 6.51927C17.3866 6.50288 17.3504 6.49716 17.3151 6.50296C17.2777 6.507 17.2429 6.52351 17.2161 6.54983L12.0036 11.7623L6.79115 6.54983C6.77397 6.53151 6.75287 6.51731 6.72942 6.50829C6.70598 6.49927 6.6808 6.49567 6.65577 6.49776C6.64872 6.49904 6.64176 6.50078 6.63494 6.50296Z" fill="#1C2430"/>
</svg>
