<svg width="20" height="20" viewBox="0 0 20 20" fill="none" xmlns="http://www.w3.org/2000/svg">
<circle cx="10" cy="10" r="8.6" fill="#FCAF17" stroke="#FFF7E8" stroke-width="1.2"/>
<path d="M11.2966 6.00042C11.2413 6.00019 11.1962 6.04503 11.1962 6.10042V8.6946C11.1962 9.39956 10.6335 9.97069 9.99993 9.97069C9.36641 9.97069 8.79848 9.39741 8.79848 8.6946V6H7.59961V8.6946C7.59961 9.04532 7.6617 9.39261 7.78234 9.71663C7.90297 10.0406 8.07979 10.335 8.30269 10.583C8.52559 10.831 8.7902 11.0277 9.08142 11.1618C9.37263 11.296 9.68475 11.365 9.99993 11.3649C10.4572 11.3649 10.809 11.2353 11.1962 10.841V11.3727C11.1962 12.0777 10.6971 12.6488 9.99993 12.6488C9.30273 12.6488 8.74896 12.0763 8.74896 11.3727H7.59961C7.60992 12.0735 7.86731 12.7416 8.31627 13.2331C8.76524 13.7246 9.36981 14 9.99961 14C10.6294 14 11.234 13.7246 11.6829 13.2331C12.1319 12.7416 12.3893 12.0735 12.3996 11.3727V6.00501L11.2966 6.00042Z" fill="#F9FAFB"/>
</svg>
