<svg width="100" height="100" viewBox="0 0 100 100" fill="none" xmlns="http://www.w3.org/2000/svg">
<rect x="0.5" y="0.5" width="99" height="99" rx="11.5" fill="white"/>
<path d="M47 38.75C45.48 38.75 44.25 37.52 44.25 36C44.25 34.48 45.48 33.25 47 33.25C48.52 33.25 49.75 34.48 49.75 36C49.75 37.52 48.52 38.75 47 38.75ZM47 34.75C46.31 34.75 45.75 35.31 45.75 36C45.75 36.69 46.31 37.25 47 37.25C47.69 37.25 48.25 36.69 48.25 36C48.25 35.31 47.69 34.75 47 34.75Z" fill="#9FB0C7"/>
<path d="M53 50.75H47C41.57 50.75 39.25 48.43 39.25 43V37C39.25 31.57 41.57 29.25 47 29.25H51C51.41 29.25 51.75 29.59 51.75 30C51.75 30.41 51.41 30.75 51 30.75H47C42.39 30.75 40.75 32.39 40.75 37V43C40.75 47.61 42.39 49.25 47 49.25H53C57.61 49.25 59.25 47.61 59.25 43V38C59.25 37.59 59.59 37.25 60 37.25C60.41 37.25 60.75 37.59 60.75 38V43C60.75 48.43 58.43 50.75 53 50.75Z" fill="#9FB0C7"/>
<path d="M59.25 33.75H53.75C53.34 33.75 53 33.41 53 33C53 32.59 53.34 32.25 53.75 32.25H59.25C59.66 32.25 60 32.59 60 33C60 33.41 59.66 33.75 59.25 33.75Z" fill="#9FB0C7"/>
<path d="M56.5 36.5C56.09 36.5 55.75 36.16 55.75 35.75V30.25C55.75 29.84 56.09 29.5 56.5 29.5C56.91 29.5 57.25 29.84 57.25 30.25V35.75C57.25 36.16 56.91 36.5 56.5 36.5Z" fill="#9FB0C7"/>
<path d="M40.67 47.6996C40.43 47.6996 40.19 47.5796 40.05 47.3696C39.82 47.0296 39.91 46.5596 40.25 46.3296L45.18 43.0196C46.26 42.2996 47.75 42.3796 48.73 43.2096L49.06 43.4996C49.56 43.9296 50.41 43.9296 50.9 43.4996L55.06 39.9296C56.13 39.0196 57.7901 39.0196 58.8601 39.9296L60.49 41.3296C60.8 41.5996 60.84 42.0696 60.57 42.3896C60.3 42.6996 59.83 42.7396 59.51 42.4696L57.88 41.0696C57.38 40.6396 56.5301 40.6396 56.0401 41.0696L51.88 44.6396C50.82 45.5496 49.15 45.5496 48.08 44.6396L47.75 44.3496C47.29 43.9596 46.53 43.9196 46.02 44.2696L41.1 47.5796C40.96 47.6596 40.81 47.6996 40.67 47.6996Z" fill="#9FB0C7"/>
<path d="M22.3549 60.2102V59.2727H28.9004V60.2102H26.1561V68H25.0993V60.2102H22.3549ZM31.4007 64.0625V68H30.3951V59.2727H31.4007V62.4773H31.486C31.6394 62.1392 31.8695 61.8707 32.1763 61.6719C32.486 61.4702 32.8979 61.3693 33.4121 61.3693C33.8581 61.3693 34.2488 61.4588 34.584 61.6378C34.9192 61.8139 35.1792 62.0852 35.3638 62.4517C35.5513 62.8153 35.6451 63.2784 35.6451 63.8409V68H34.6394V63.9091C34.6394 63.3892 34.5044 62.9872 34.2346 62.7031C33.9675 62.4162 33.5968 62.2727 33.1223 62.2727C32.7928 62.2727 32.4973 62.3423 32.236 62.4815C31.9775 62.6207 31.7729 62.8239 31.6223 63.0909C31.4746 63.358 31.4007 63.6818 31.4007 64.0625ZM40.2292 68.1364C39.5985 68.1364 39.0545 67.9972 38.5971 67.7188C38.1426 67.4375 37.7917 67.0455 37.5446 66.5426C37.3002 66.0369 37.1781 65.4489 37.1781 64.7784C37.1781 64.108 37.3002 63.517 37.5446 63.0057C37.7917 62.4915 38.1355 62.0909 38.5758 61.804C39.019 61.5142 39.536 61.3693 40.127 61.3693C40.4679 61.3693 40.8045 61.4261 41.1369 61.5398C41.4693 61.6534 41.7718 61.8381 42.0446 62.0938C42.3173 62.3466 42.5346 62.6818 42.6966 63.0994C42.8585 63.517 42.9395 64.0312 42.9395 64.642V65.0682H37.894V64.1989H41.9167C41.9167 63.8295 41.8429 63.5 41.6951 63.2102C41.5502 62.9205 41.3429 62.6918 41.073 62.5241C40.8059 62.3565 40.4906 62.2727 40.127 62.2727C39.7264 62.2727 39.3798 62.3722 39.0872 62.571C38.7974 62.767 38.5744 63.0227 38.4181 63.3381C38.2619 63.6534 38.1838 63.9915 38.1838 64.3523V64.9318C38.1838 65.4261 38.269 65.8452 38.4395 66.1889C38.6127 66.5298 38.8528 66.7898 39.1596 66.9688C39.4664 67.1449 39.823 67.233 40.2292 67.233C40.4934 67.233 40.7321 67.196 40.9451 67.1222C41.161 67.0455 41.3471 66.9318 41.5034 66.7812C41.6596 66.6278 41.7804 66.4375 41.8656 66.2102L42.8372 66.483C42.7349 66.8125 42.563 67.1023 42.3216 67.3523C42.0801 67.5994 41.7818 67.7926 41.4267 67.9318C41.0716 68.0682 40.6724 68.1364 40.2292 68.1364ZM40.9622 60.6705L40.0758 59.4773L39.1895 60.6705H38.2349V60.6023L39.6156 58.8295H40.536L41.9167 60.6023V60.6705H40.9622ZM44.4693 68V61.4545H45.4409V62.4773H45.5261C45.6625 62.1278 45.8826 61.8565 46.1866 61.6634C46.4906 61.4673 46.8556 61.3693 47.2818 61.3693C47.7136 61.3693 48.073 61.4673 48.3599 61.6634C48.6497 61.8565 48.8755 62.1278 49.0375 62.4773H49.1056C49.2733 62.1392 49.5247 61.8707 49.8599 61.6719C50.1951 61.4702 50.5971 61.3693 51.0659 61.3693C51.6511 61.3693 52.1298 61.5526 52.502 61.919C52.8741 62.2827 53.0602 62.8494 53.0602 63.6193V68H52.0545V63.6193C52.0545 63.1364 51.9224 62.7912 51.6582 62.5838C51.394 62.3764 51.0829 62.2727 50.725 62.2727C50.2647 62.2727 49.9082 62.4119 49.6554 62.6903C49.4025 62.9659 49.2761 63.3153 49.2761 63.7386V68H48.2534V63.517C48.2534 63.1449 48.1326 62.8452 47.8912 62.6179C47.6497 62.3878 47.3386 62.2727 46.9579 62.2727C46.6966 62.2727 46.4522 62.3423 46.225 62.4815C46.0005 62.6207 45.8187 62.8139 45.6795 63.0611C45.5431 63.3054 45.475 63.5881 45.475 63.9091V68H44.4693ZM60.2001 68.1534C59.7853 68.1534 59.4089 68.0753 59.0708 67.919C58.7328 67.7599 58.4643 67.5312 58.2654 67.233C58.0666 66.9318 57.9672 66.5682 57.9672 66.142C57.9672 65.767 58.041 65.4631 58.1887 65.2301C58.3365 64.9943 58.5339 64.8097 58.7811 64.6761C59.0282 64.5426 59.301 64.4432 59.5993 64.3778C59.9004 64.3097 60.2029 64.2557 60.5069 64.2159C60.9047 64.1648 61.2271 64.1264 61.4743 64.1009C61.7243 64.0724 61.9061 64.0256 62.0197 63.9602C62.1362 63.8949 62.1944 63.7812 62.1944 63.6193V63.5852C62.1944 63.1648 62.0794 62.8381 61.8493 62.6051C61.622 62.3722 61.2768 62.2557 60.8137 62.2557C60.3336 62.2557 59.9572 62.3608 59.6845 62.571C59.4118 62.7812 59.22 63.0057 59.1092 63.2443L58.1547 62.9034C58.3251 62.5057 58.5524 62.196 58.8365 61.9744C59.1234 61.75 59.4359 61.5937 59.774 61.5057C60.1149 61.4148 60.4501 61.3693 60.7797 61.3693C60.9899 61.3693 61.2314 61.3949 61.5041 61.446C61.7797 61.4943 62.0453 61.5952 62.301 61.7486C62.5595 61.902 62.774 62.1335 62.9444 62.4432C63.1149 62.7528 63.2001 63.1676 63.2001 63.6875V68H62.1944V67.1136H62.1433C62.0751 67.2557 61.9615 67.4077 61.8024 67.5696C61.6433 67.7315 61.4316 67.8693 61.1674 67.983C60.9032 68.0966 60.5808 68.1534 60.2001 68.1534ZM60.3535 67.25C60.7512 67.25 61.0865 67.1719 61.3592 67.0156C61.6348 66.8594 61.8422 66.6577 61.9814 66.4105C62.1234 66.1634 62.1944 65.9034 62.1944 65.6307V64.7102C62.1518 64.7614 62.0581 64.8082 61.9132 64.8509C61.7711 64.8906 61.6064 64.9261 61.4189 64.9574C61.2342 64.9858 61.0538 65.0114 60.8777 65.0341C60.7044 65.054 60.5637 65.071 60.4558 65.0852C60.1944 65.1193 59.9501 65.1747 59.7228 65.2514C59.4984 65.3253 59.3166 65.4375 59.1774 65.5881C59.041 65.7358 58.9728 65.9375 58.9728 66.1932C58.9728 66.5426 59.1021 66.8068 59.3606 66.9858C59.622 67.1619 59.9529 67.25 60.3535 67.25ZM61.291 60.5682H60.4558V59.6477C60.7541 59.6307 60.9643 59.5895 61.0865 59.5241C61.2115 59.4588 61.274 59.358 61.274 59.2216C61.274 59.0682 61.1845 58.956 61.0055 58.8849C60.8265 58.8139 60.6092 58.7784 60.3535 58.7784L60.3876 58.1307C60.9757 58.1307 61.4203 58.233 61.7214 58.4375C62.0254 58.642 62.1774 58.9148 62.1774 59.2557C62.1774 59.5455 62.085 59.7571 61.9004 59.8906C61.7157 60.0241 61.5126 60.108 61.291 60.142V60.5682ZM66.0414 64.0625V68H65.0357V61.4545H66.0073V62.4773H66.0925C66.2459 62.1449 66.4789 61.8778 66.7914 61.6761C67.1039 61.4716 67.5073 61.3693 68.0016 61.3693C68.4448 61.3693 68.8326 61.4602 69.165 61.642C69.4973 61.821 69.7559 62.0938 69.9405 62.4602C70.1252 62.8239 70.2175 63.2841 70.2175 63.8409V68H69.2118V63.9091C69.2118 63.3949 69.0783 62.9943 68.8113 62.7074C68.5442 62.4176 68.1777 62.2727 67.7118 62.2727C67.3908 62.2727 67.1039 62.3423 66.851 62.4815C66.601 62.6207 66.4036 62.8239 66.2587 63.0909C66.1138 63.358 66.0414 63.6818 66.0414 64.0625ZM73.0609 64.0625V68H72.0552V59.2727H73.0609V62.4773H73.1461C73.2995 62.1392 73.5297 61.8707 73.8365 61.6719C74.1461 61.4702 74.5581 61.3693 75.0723 61.3693C75.5183 61.3693 75.9089 61.4588 76.2441 61.6378C76.5794 61.8139 76.8393 62.0852 77.024 62.4517C77.2115 62.8153 77.3052 63.2784 77.3052 63.8409V68H76.2995V63.9091C76.2995 63.3892 76.1646 62.9872 75.8947 62.7031C75.6277 62.4162 75.2569 62.2727 74.7825 62.2727C74.4529 62.2727 74.1575 62.3423 73.8961 62.4815C73.6376 62.6207 73.4331 62.8239 73.2825 63.0909C73.1348 63.358 73.0609 63.6818 73.0609 64.0625Z" fill="#9FB0C7"/>
<rect x="0.5" y="0.5" width="99" height="99" rx="11.5" stroke="#CFD7E3" stroke-dasharray="8 2"/>
</svg>
