<svg width="36" height="36" viewBox="0 0 36 36" fill="none" xmlns="http://www.w3.org/2000/svg">
<rect width="36" height="36" rx="18" fill="white" fill-opacity="0.5"/>
<path d="M14.9101 26.6695C14.7201 26.6695 14.5301 26.5995 14.3801 26.4495C14.0901 26.1595 14.0901 25.6795 14.3801 25.3895L20.9001 18.8695C21.3801 18.3895 21.3801 17.6095 20.9001 17.1295L14.3801 10.6095C14.0901 10.3195 14.0901 9.83953 14.3801 9.54953C14.6701 9.25953 15.1501 9.25953 15.4401 9.54953L21.9601 16.0695C22.4701 16.5795 22.7601 17.2695 22.7601 17.9995C22.7601 18.7295 22.4801 19.4195 21.9601 19.9295L15.4401 26.4495C15.2901 26.5895 15.1001 26.6695 14.9101 26.6695Z" fill="#1C2430"/>
</svg>
