<svg width="24" height="24" viewBox="0 0 24 24" fill="none" xmlns="http://www.w3.org/2000/svg">
    <path
        d="M11.5 21.75C5.85 21.75 1.25 17.15 1.25 11.5C1.25 5.85 5.85 1.25 11.5 1.25C17.15 1.25 21.75 5.85 21.75 11.5C21.75 17.15 17.15 21.75 11.5 21.75ZM11.5 2.75C6.67 2.75 2.75 6.68 2.75 11.5C2.75 16.32 6.67 20.25 11.5 20.25C16.33 20.25 20.25 16.32 20.25 11.5C20.25 6.68 16.33 2.75 11.5 2.75Z"
        fill="#1C2430" />
    <path
        d="M22 22.7496C21.81 22.7496 21.62 22.6796 21.47 22.5296L18.0001 18.9995C17.7101 18.7095 18.2099 18.7896 18.4999 18.4996C18.7899 18.2096 18.7102 17.7096 19.0002 17.9996L22.53 21.4696C22.82 21.7596 22.82 22.2396 22.53 22.5296C22.38 22.6796 22.19 22.7496 22 22.7496Z"
        fill="#1C2430" />
</svg>
