<svg width="24" height="24" viewBox="0 0 24 24" fill="none" xmlns="http://www.w3.org/2000/svg">
<path d="M4.45694 0.120432C5.28012 -0.00915841 6.11729 -0.0099344 6.94902 0.00868936L6.87751 0.0746485C5.78926 0.786231 4.8868 1.7632 4.23463 2.88451C2.92718 5.12945 2.45069 7.78411 2.55873 10.3573C2.666 12.4525 3.16971 14.5593 4.23774 16.3805C4.41652 16.7064 4.71423 16.9943 4.7189 17.3901C4.75232 18.239 4.3318 19.0391 3.7628 19.6459C3.80011 19.6847 3.83664 19.7235 3.87396 19.7623C4.40642 20.3427 4.97464 20.8883 5.51565 21.4609C6.28442 22.3285 7.16045 23.0967 7.91367 23.9798C6.66064 23.9984 5.39283 24.0566 4.15457 23.823C2.59605 23.5212 1.21242 22.4426 0.551701 21.0008C0.151383 20.1674 0.0316757 19.2354 0.000582988 18.3221C-0.000194329 14.1053 -0.000194329 9.88937 0.000582988 5.67342C0.017684 4.26422 0.391574 2.78984 1.38499 1.74458C2.17163 0.859174 3.28553 0.28339 4.45694 0.120432Z" fill="#394960"/>
<path d="M15.8696 7.86332C16.203 7.86332 16.5365 7.86332 16.8708 7.86332C16.8653 9.81339 16.8653 11.7642 16.8708 13.7143C16.5443 13.6685 16.0009 13.8772 15.8781 13.4435C15.8579 11.5842 15.8766 9.72337 15.8696 7.86332Z" fill="#1C2430"/>
<path d="M5.668 7.93232C7.21953 7.93077 8.7695 7.92068 10.3202 7.93155C10.3094 8.23496 10.2923 8.56553 10.0886 8.81074C9.02834 10.1284 7.99062 11.4631 6.93114 12.7807C8.05747 12.7877 9.18381 12.783 10.3101 12.783C10.2892 13.0461 10.3817 13.3526 10.2106 13.5808C10.1034 13.7282 9.90904 13.715 9.74814 13.7166C8.33886 13.7088 6.92959 13.7235 5.52109 13.7088C5.52497 13.4116 5.52808 13.0826 5.7364 12.8459C6.78423 11.5337 7.84449 10.2308 8.88765 8.9155C7.81573 8.91705 6.74303 8.90852 5.67111 8.92016C5.66411 8.59114 5.66645 8.26134 5.668 7.93232Z" fill="#1C2430"/>
<path d="M19.3527 9.22371C20.4689 8.97462 21.68 9.70637 21.9855 10.8036C22.3687 11.9451 21.6691 13.3023 20.5132 13.65C19.5315 13.9953 18.3562 13.5444 17.847 12.6412C17.4475 11.9738 17.4234 11.1001 17.7864 10.4133C18.0942 9.80725 18.6889 9.36416 19.3527 9.22371ZM19.334 10.2123C18.6531 10.4521 18.2862 11.2793 18.5521 11.9474C18.772 12.5791 19.5128 12.9655 20.1564 12.7715C20.891 12.5962 21.3349 11.7371 21.0745 11.0333C20.8568 10.3365 20.0134 9.93452 19.334 10.2123Z" fill="#1C2430"/>
<path d="M11.0836 10.0361C11.6207 9.37187 12.5613 9.0444 13.3899 9.28108C13.6635 9.35014 13.9115 9.48672 14.1509 9.63183C14.1485 9.55889 14.1431 9.41378 14.1408 9.34083C14.454 9.33928 14.7665 9.34006 15.0798 9.3385C15.0782 10.7974 15.0767 12.2562 15.0805 13.7159C14.8505 13.7097 14.6165 13.7368 14.3903 13.6903C14.2317 13.6258 14.1827 13.4528 14.1198 13.3116C13.2554 13.982 11.8974 13.8299 11.1792 13.0136C10.4135 12.2229 10.3739 10.8757 11.0836 10.0361ZM12.3491 10.2317C11.6293 10.4846 11.2802 11.4104 11.6448 12.0777C11.9557 12.728 12.831 13.0012 13.4567 12.6427C14.0374 12.3385 14.3056 11.5834 14.056 10.9797C13.8143 10.3232 12.9989 9.95542 12.3491 10.2317Z" fill="#1C2430"/>
<path d="M6.87754 0.0747045C7.05166 0.0250411 7.23355 0.00952129 7.41389 0.00408936C10.5224 0.0157292 13.6309 0.00253737 16.7394 0.00796931C17.5703 0.0180572 18.4059 -0.0378141 19.2307 0.0886723C20.3725 0.175583 21.4717 0.658249 22.3213 1.42105C23.3878 2.43837 23.9568 3.90344 23.9746 5.36463C23.9754 9.47815 23.9731 13.5948 23.977 17.7068C23.9661 17.7308 23.9451 17.7805 23.9342 17.8053C22.8265 19.0422 21.3372 19.8795 19.7802 20.4212C17.6822 21.1351 15.435 21.3648 13.2298 21.1972C11.0245 21.0078 8.80218 20.4328 6.93195 19.2161C5.97585 19.6405 4.92103 19.8485 3.87399 19.7624C3.83668 19.7236 3.80014 19.6848 3.76283 19.646C4.33183 19.0391 4.75235 18.2391 4.71893 17.3902C4.71427 16.9944 4.41655 16.7065 4.23777 16.3806C3.16974 14.5593 2.66604 12.4525 2.55877 10.3574C2.45072 7.78417 2.92721 5.1295 4.23466 2.88456C4.88683 1.76326 5.7893 0.786287 6.87754 0.0747045ZM15.8695 7.86332C15.8765 9.72337 15.8579 11.5842 15.8781 13.4435C16.0009 13.8772 16.5443 13.6685 16.8707 13.7143C16.8653 11.7642 16.8653 9.81338 16.8707 7.86332C16.5365 7.86332 16.203 7.86332 15.8695 7.86332ZM5.66803 7.93238C5.66648 8.2614 5.66415 8.5912 5.67114 8.92022C6.74306 8.90858 7.81576 8.91711 8.88768 8.91556C7.84452 10.2309 6.78426 11.5338 5.73644 12.846C5.52812 13.0826 5.52501 13.4116 5.52112 13.7089C6.92962 13.7236 8.3389 13.7089 9.74817 13.7166C9.90908 13.7151 10.1034 13.7283 10.2107 13.5808C10.3817 13.3527 10.2892 13.0462 10.3102 12.7831C9.18384 12.7831 8.05751 12.7878 6.93117 12.7808C7.99066 11.4631 9.02838 10.1284 10.0886 8.8108C10.2923 8.56559 10.3094 8.23502 10.3203 7.9316C8.76953 7.92074 7.21956 7.93083 5.66803 7.93238ZM19.3527 9.22363C18.6889 9.36408 18.0942 9.80717 17.7864 10.4132C17.4234 11.1 17.4475 11.9737 17.847 12.6411C18.3562 13.5443 19.5315 13.9952 20.5132 13.6499C21.6691 13.3022 22.3687 11.945 21.9855 10.8035C21.68 9.70629 20.4689 8.97454 19.3527 9.22363ZM11.0836 10.0361C10.3739 10.8757 10.4136 12.2228 11.1792 13.0136C11.8975 13.8299 13.2554 13.982 14.1198 13.3115C14.1828 13.4528 14.2317 13.6258 14.3903 13.6902C14.6165 13.7368 14.8505 13.7096 15.0806 13.7158C15.0767 12.2562 15.0782 10.7973 15.0798 9.33848C14.7665 9.34003 14.4541 9.33925 14.1408 9.3408C14.1431 9.41375 14.1486 9.55886 14.1509 9.6318C13.9115 9.48669 13.6635 9.35011 13.3899 9.28105C12.5613 9.04437 11.6207 9.37184 11.0836 10.0361Z" fill="white"/>
<path d="M12.349 10.2318C12.9988 9.95558 13.8142 10.3234 14.0559 10.9799C14.3055 11.5836 14.0373 12.3386 13.4566 12.6428C12.8309 13.0013 11.9556 12.7282 11.6447 12.0779C11.2801 11.4106 11.6292 10.4848 12.349 10.2318Z" fill="white"/>
<path d="M19.3339 10.2123C20.0133 9.93452 20.8567 10.3365 21.0744 11.0333C21.3348 11.7371 20.8909 12.5962 20.1564 12.7715C19.5127 12.9655 18.7719 12.5791 18.552 11.9474C18.2861 11.2793 18.653 10.4521 19.3339 10.2123Z" fill="white"/>
<path d="M23.9342 17.8054L23.9956 17.7386C24.0274 18.9515 23.8961 20.2171 23.2999 21.2965C22.6065 22.563 21.3488 23.5035 19.9341 23.8045C19.1404 23.9683 18.3266 24.0047 17.5182 23.9947C15.0315 23.9954 12.5449 23.9947 10.0583 23.9954C9.34314 23.9838 8.62645 24.0172 7.91365 23.9799C7.16043 23.0968 6.28439 22.3286 5.51563 21.461C4.97461 20.8884 4.40639 20.3428 3.87393 19.7624C4.92098 19.8485 5.9758 19.6406 6.9319 19.2161C8.80212 20.4329 11.0245 21.0079 13.2297 21.1972C15.435 21.3648 17.6822 21.1351 19.7802 20.4212C21.3371 19.8796 22.8265 19.0423 23.9342 17.8054Z" fill="#394960"/>
</svg>
