<svg width="24" height="24" viewBox="0 0 24 24" fill="none" xmlns="http://www.w3.org/2000/svg">
    <path
        d="M5.58674 5.39681C5.57828 5.39835 5.56993 5.40044 5.56174 5.40306C5.52516 5.40969 5.49116 5.42639 5.46355 5.45128C5.43593 5.47617 5.41581 5.50827 5.40542 5.54396C5.39504 5.57966 5.39481 5.61754 5.40476 5.65336C5.41471 5.68918 5.43445 5.72152 5.46176 5.74674L11.7167 12.0017L5.46176 18.2567C5.44289 18.2756 5.42791 18.298 5.4177 18.3226C5.40748 18.3473 5.40222 18.3737 5.40222 18.4004C5.40222 18.4271 5.40748 18.4535 5.41769 18.4782C5.42791 18.5029 5.44288 18.5253 5.46175 18.5441C5.48063 18.563 5.50304 18.578 5.5277 18.5882C5.55236 18.5984 5.57879 18.6037 5.60548 18.6037C5.63217 18.6037 5.6586 18.5984 5.68326 18.5882C5.70792 18.578 5.73033 18.563 5.7492 18.5441L12.0042 12.2892L18.2592 18.5441C18.278 18.563 18.3004 18.578 18.3251 18.5882C18.3498 18.5984 18.3762 18.6037 18.4029 18.6037C18.4296 18.6037 18.456 18.5984 18.4807 18.5882C18.5053 18.578 18.5277 18.563 18.5466 18.5441C18.5655 18.5253 18.5804 18.5029 18.5907 18.4782C18.6009 18.4535 18.6061 18.4271 18.6061 18.4004C18.6061 18.3737 18.6009 18.3473 18.5907 18.3226C18.5804 18.298 18.5655 18.2756 18.5466 18.2567L12.2916 12.0017L18.5466 5.74674C18.578 5.71747 18.5992 5.67887 18.607 5.63665C18.6148 5.59442 18.6087 5.55081 18.5898 5.51226C18.5709 5.47372 18.5401 5.44229 18.5019 5.42262C18.4637 5.40295 18.4202 5.39609 18.3779 5.40306C18.3331 5.4079 18.2913 5.42771 18.2592 5.4593L12.0042 11.7143L5.7492 5.4593C5.72858 5.43731 5.70326 5.42027 5.67513 5.40945C5.64699 5.39863 5.61678 5.39431 5.58674 5.39681Z"
        fill="black" />
    <path fill-rule="evenodd" clip-rule="evenodd"
        d="M5.53483 5.00366L5.55408 5.00206C5.64363 4.9946 5.73372 5.00748 5.81759 5.03974C5.89897 5.07104 5.97246 5.11979 6.0329 5.18252L12.0044 11.154L17.9792 5.17923L17.9816 5.1769C18.0747 5.0853 18.1953 5.0269 18.3247 5.01051C18.4476 4.99262 18.5731 5.01355 18.6836 5.07051C18.7974 5.12915 18.8893 5.22285 18.9457 5.33777C19.0021 5.45268 19.0201 5.5827 18.9969 5.70859C18.9742 5.83156 18.9134 5.94421 18.8233 6.03068L12.8522 12.0018L18.827 17.9766C18.827 17.9766 18.827 17.9766 18.827 17.9766C18.8826 18.0323 18.9268 18.0984 18.9569 18.1711C18.9871 18.2438 19.0026 18.3218 19.0026 18.4005C19.0026 18.4792 18.9871 18.5572 18.957 18.6299C18.9268 18.7027 18.8827 18.7687 18.827 18.8244C18.7713 18.8801 18.7052 18.9242 18.6325 18.9544C18.5598 18.9845 18.4818 19 18.4031 19C18.3244 19 18.2464 18.9845 18.1737 18.9544C18.101 18.9242 18.0349 18.8801 17.9792 18.8244C17.9792 18.8244 17.9792 18.8244 17.9792 18.8244L12.0044 12.8496L6.02963 18.8244C5.97396 18.8801 5.90787 18.9242 5.83514 18.9544C5.76241 18.9845 5.68445 19 5.60572 19C5.52699 19 5.44904 18.9845 5.3763 18.9544C5.30357 18.9242 5.23748 18.8801 5.18181 18.8244C5.12614 18.7687 5.08198 18.7027 5.05186 18.6299C5.02173 18.5572 5.00622 18.4792 5.00623 18.4005C5.00623 18.3218 5.02174 18.2438 5.05187 18.1711C5.082 18.0984 5.12616 18.0323 5.18182 17.9766C5.18181 17.9766 5.18182 17.9766 5.18182 17.9766L11.1566 12.0018L5.1859 6.0311C5.10824 5.95694 5.05201 5.86313 5.02323 5.75955C4.99356 5.65276 4.99424 5.53982 5.0252 5.43339C5.05616 5.32697 5.11617 5.23129 5.19849 5.15708C5.27443 5.08863 5.36658 5.04096 5.46601 5.01845C5.48244 5.01396 5.49907 5.01019 5.51583 5.00713L5.53483 5.00366ZM5.56197 5.40317C5.52539 5.4098 5.49139 5.4265 5.46378 5.45139C5.43616 5.47628 5.41604 5.50838 5.40565 5.54407C5.39527 5.57977 5.39504 5.61765 5.40499 5.65347C5.41494 5.68929 5.43468 5.72162 5.46199 5.74685L11.717 12.0018L5.46199 18.2568C5.44312 18.2757 5.42814 18.2981 5.41793 18.3227C5.40771 18.3474 5.40245 18.3738 5.40245 18.4005C5.40245 18.4272 5.40771 18.4536 5.41792 18.4783C5.42814 18.503 5.44311 18.5254 5.46198 18.5442C5.48086 18.5631 5.50327 18.5781 5.52793 18.5883C5.55259 18.5985 5.57902 18.6038 5.60571 18.6038C5.6324 18.6038 5.65883 18.5985 5.6835 18.5883C5.70816 18.5781 5.73056 18.5631 5.74943 18.5442L12.0044 12.2893L18.2594 18.5442C18.2783 18.5631 18.3007 18.5781 18.3253 18.5883C18.35 18.5985 18.3764 18.6038 18.4031 18.6038C18.4298 18.6038 18.4562 18.5985 18.4809 18.5883C18.5056 18.5781 18.528 18.5631 18.5468 18.5442C18.5657 18.5254 18.5807 18.503 18.5909 18.4783C18.6011 18.4536 18.6064 18.4272 18.6064 18.4005C18.6064 18.3738 18.6011 18.3474 18.5909 18.3227C18.5807 18.2981 18.5657 18.2757 18.5468 18.2568L12.2918 12.0018L18.5468 5.74685C18.5782 5.71758 18.5994 5.67898 18.6072 5.63676C18.615 5.59453 18.609 5.55092 18.5901 5.51237C18.5711 5.47383 18.5403 5.4424 18.5021 5.42273C18.464 5.40306 18.4205 5.3962 18.3781 5.40317C18.3333 5.40801 18.2915 5.42782 18.2594 5.4594L12.0044 11.7144L5.74943 5.4594C5.72881 5.43742 5.70349 5.42038 5.67536 5.40956C5.64722 5.39874 5.61701 5.39441 5.58697 5.39692C5.57851 5.39846 5.57016 5.40055 5.56197 5.40317Z"
        fill="black" />
</svg>
